<svg width="200" height="280" viewBox="0 0 200 280" fill="none" xmlns="http://www.w3.org/2000/svg">
  <!-- Background -->
  <rect width="200" height="280" fill="white"/>
  
  <!-- Header -->
  <rect x="20" y="20" width="160" height="40" fill="#2563EB"/>
  <rect x="30" y="30" width="80" height="10" fill="white"/>
  <rect x="30" y="45" width="50" height="5" fill="white"/>
  
  <!-- Content -->
  <rect x="20" y="70" width="160" height="1" fill="#E5E7EB"/>
  
  <!-- Left Column -->
  <rect x="20" y="80" width="50" height="180" fill="#F3F4F6"/>
  <circle cx="45" cy="100" r="15" fill="#D1D5DB"/>
  <rect x="30" y="125" width="30" height="5" fill="#9CA3AF"/>
  <rect x="30" y="135" width="30" height="5" fill="#9CA3AF"/>
  <rect x="30" y="145" width="30" height="5" fill="#9CA3AF"/>
  
  <rect x="30" y="165" width="30" height="8" fill="#6B7280"/>
  <rect x="30" y="178" width="30" height="5" fill="#9CA3AF"/>
  <rect x="30" y="188" width="30" height="5" fill="#9CA3AF"/>
  <rect x="30" y="198" width="30" height="5" fill="#9CA3AF"/>
  
  <rect x="30" y="218" width="30" height="8" fill="#6B7280"/>
  <rect x="30" y="231" width="30" height="5" fill="#9CA3AF"/>
  <rect x="30" y="241" width="30" height="5" fill="#9CA3AF"/>
  
  <!-- Right Column -->
  <rect x="80" y="85" width="90" height="10" fill="#111827"/>
  <rect x="80" y="100" width="70" height="5" fill="#6B7280"/>
  <rect x="80" y="110" width="90" height="3" fill="#D1D5DB"/>
  <rect x="80" y="116" width="90" height="3" fill="#D1D5DB"/>
  <rect x="80" y="122" width="70" height="3" fill="#D1D5DB"/>
  
  <rect x="80" y="140" width="50" height="8" fill="#4B5563"/>
  <rect x="80" y="153" width="90" height="3" fill="#D1D5DB"/>
  <rect x="80" y="159" width="90" height="3" fill="#D1D5DB"/>
  <rect x="80" y="165" width="70" height="3" fill="#D1D5DB"/>
  
  <rect x="80" y="180" width="50" height="8" fill="#4B5563"/>
  <rect x="80" y="193" width="90" height="3" fill="#D1D5DB"/>
  <rect x="80" y="199" width="90" height="3" fill="#D1D5DB"/>
  <rect x="80" y="205" width="70" height="3" fill="#D1D5DB"/>
  
  <rect x="80" y="220" width="50" height="8" fill="#4B5563"/>
  <rect x="80" y="233" width="90" height="3" fill="#D1D5DB"/>
  <rect x="80" y="239" width="90" height="3" fill="#D1D5DB"/>
  <rect x="80" y="245" width="70" height="3" fill="#D1D5DB"/>
</svg>