<svg width="200" height="280" viewBox="0 0 200 280" fill="none" xmlns="http://www.w3.org/2000/svg">
  <!-- Background -->
  <rect width="200" height="280" fill="white"/>
  
  <!-- Header -->
  <rect x="0" y="0" width="200" height="60" fill="#EC4899"/>
  <circle cx="40" cy="30" r="20" fill="white"/>
  <rect x="70" y="20" width="100" height="10" fill="white"/>
  <rect x="70" y="35" width="60" height="5" fill="white"/>
  
  <!-- Content -->
  <rect x="20" y="80" width="160" height="190" fill="white"/>
  
  <!-- About Me -->
  <rect x="20" y="80" width="60" height="8" fill="#EC4899"/>
  <rect x="20" y="95" width="160" height="3" fill="#D1D5DB"/>
  <rect x="20" y="102" width="160" height="3" fill="#D1D5DB"/>
  <rect x="20" y="109" width="120" height="3" fill="#D1D5DB"/>
  
  <!-- Experience -->
  <rect x="20" y="130" width="70" height="8" fill="#EC4899"/>
  
  <rect x="20" y="145" width="160" height="1" fill="#F3F4F6"/>
  <rect x="20" y="150" width="50" height="6" fill="#111827"/>
  <rect x="20" y="160" width="40" height="4" fill="#6B7280"/>
  <rect x="70" y="160" width="30" height="4" fill="#6B7280"/>
  <rect x="20" y="170" width="160" height="3" fill="#D1D5DB"/>
  <rect x="20" y="177" width="160" height="3" fill="#D1D5DB"/>
  <rect x="20" y="184" width="100" height="3" fill="#D1D5DB"/>
  
  <rect x="20" y="195" width="160" height="1" fill="#F3F4F6"/>
  <rect x="20" y="200" width="50" height="6" fill="#111827"/>
  <rect x="20" y="210" width="40" height="4" fill="#6B7280"/>
  <rect x="70" y="210" width="30" height="4" fill="#6B7280"/>
  <rect x="20" y="220" width="160" height="3" fill="#D1D5DB"/>
  <rect x="20" y="227" width="160" height="3" fill="#D1D5DB"/>
  <rect x="20" y="234" width="100" height="3" fill="#D1D5DB"/>
  
  <!-- Skills -->
  <rect x="20" y="250" width="40" height="8" fill="#EC4899"/>
  <rect x="20" y="265" width="30" height="5" rx="2.5" fill="#FBCFE8"/>
  <rect x="55" y="265" width="30" height="5" rx="2.5" fill="#FBCFE8"/>
  <rect x="90" y="265" width="30" height="5" rx="2.5" fill="#FBCFE8"/>
  <rect x="125" y="265" width="30" height="5" rx="2.5" fill="#FBCFE8"/>
</svg>