<svg width="200" height="280" viewBox="0 0 200 280" fill="none" xmlns="http://www.w3.org/2000/svg">
  <!-- Background -->
  <rect width="200" height="280" fill="white"/>
  
  <!-- Header -->
  <rect x="0" y="0" width="200" height="60" fill="#10B981"/>
  <rect x="20" y="20" width="100" height="12" fill="white"/>
  <rect x="20" y="38" width="60" height="6" fill="white"/>
  
  <!-- Contact Info -->
  <rect x="20" y="70" width="160" height="20" fill="#F3F4F6"/>
  <rect x="30" y="77" width="30" height="6" fill="#6B7280"/>
  <rect x="70" y="77" width="30" height="6" fill="#6B7280"/>
  <rect x="110" y="77" width="30" height="6" fill="#6B7280"/>
  <rect x="150" y="77" width="20" height="6" fill="#6B7280"/>
  
  <!-- Summary -->
  <rect x="20" y="100" width="160" height="40" fill="white"/>
  <rect x="20" y="100" width="50" height="8" fill="#10B981"/>
  <rect x="20" y="115" width="160" height="3" fill="#D1D5DB"/>
  <rect x="20" y="122" width="160" height="3" fill="#D1D5DB"/>
  <rect x="20" y="129" width="120" height="3" fill="#D1D5DB"/>
  
  <!-- Experience -->
  <rect x="20" y="150" width="160" height="60" fill="white"/>
  <rect x="20" y="150" width="70" height="8" fill="#10B981"/>
  <rect x="20" y="165" width="50" height="6" fill="#111827"/>
  <rect x="20" y="175" width="40" height="4" fill="#6B7280"/>
  <rect x="70" y="175" width="30" height="4" fill="#6B7280"/>
  <rect x="20" y="185" width="160" height="3" fill="#D1D5DB"/>
  <rect x="20" y="192" width="160" height="3" fill="#D1D5DB"/>
  <rect x="20" y="199" width="100" height="3" fill="#D1D5DB"/>
  
  <!-- Education -->
  <rect x="20" y="220" width="160" height="50" fill="white"/>
  <rect x="20" y="220" width="60" height="8" fill="#10B981"/>
  <rect x="20" y="235" width="50" height="6" fill="#111827"/>
  <rect x="20" y="245" width="40" height="4" fill="#6B7280"/>
  <rect x="70" y="245" width="30" height="4" fill="#6B7280"/>
  <rect x="20" y="255" width="100" height="3" fill="#D1D5DB"/>
</svg>