<svg width="200" height="280" viewBox="0 0 200 280" fill="none" xmlns="http://www.w3.org/2000/svg">
  <!-- Background -->
  <rect width="200" height="280" fill="white"/>
  
  <!-- Header -->
  <rect x="0" y="0" width="60" height="280" fill="#4F46E5"/>
  
  <!-- Name and Title -->
  <rect x="70" y="20" width="80" height="12" fill="#111827"/>
  <rect x="70" y="38" width="60" height="6" fill="#6B7280"/>
  
  <!-- Contact Info -->
  <rect x="70" y="60" width="30" height="6" fill="#9CA3AF"/>
  <rect x="70" y="70" width="30" height="6" fill="#9CA3AF"/>
  <rect x="70" y="80" width="30" height="6" fill="#9CA3AF"/>
  
  <!-- Left Column -->
  <circle cx="30" cy="40" r="15" fill="white"/>
  
  <rect x="15" y="70" width="30" height="8" fill="white"/>
  <rect x="15" y="83" width="30" height="4" fill="#A5B4FC"/>
  <rect x="15" y="92" width="30" height="4" fill="#A5B4FC"/>
  <rect x="15" y="101" width="30" height="4" fill="#A5B4FC"/>
  
  <rect x="15" y="120" width="30" height="8" fill="white"/>
  <rect x="15" y="133" width="30" height="4" fill="#A5B4FC"/>
  <rect x="15" y="142" width="30" height="4" fill="#A5B4FC"/>
  <rect x="15" y="151" width="30" height="4" fill="#A5B4FC"/>
  
  <rect x="15" y="170" width="30" height="8" fill="white"/>
  <rect x="15" y="183" width="30" height="4" fill="#A5B4FC"/>
  <rect x="15" y="192" width="30" height="4" fill="#A5B4FC"/>
  <rect x="15" y="201" width="30" height="4" fill="#A5B4FC"/>
  
  <!-- Right Column Content -->
  <rect x="70" y="100" width="50" height="8" fill="#4F46E5"/>
  <rect x="70" y="115" width="120" height="3" fill="#D1D5DB"/>
  <rect x="70" y="122" width="120" height="3" fill="#D1D5DB"/>
  <rect x="70" y="129" width="100" height="3" fill="#D1D5DB"/>
  
  <rect x="70" y="145" width="50" height="6" fill="#111827"/>
  <rect x="70" y="155" width="40" height="4" fill="#6B7280"/>
  <rect x="120" y="155" width="30" height="4" fill="#6B7280"/>
  <rect x="70" y="165" width="120" height="3" fill="#D1D5DB"/>
  <rect x="70" y="172" width="120" height="3" fill="#D1D5DB"/>
  
  <rect x="70" y="190" width="50" height="6" fill="#111827"/>
  <rect x="70" y="200" width="40" height="4" fill="#6B7280"/>
  <rect x="120" y="200" width="30" height="4" fill="#6B7280"/>
  <rect x="70" y="210" width="120" height="3" fill="#D1D5DB"/>
  <rect x="70" y="217" width="120" height="3" fill="#D1D5DB"/>
  
  <rect x="70" y="235" width="50" height="6" fill="#111827"/>
  <rect x="70" y="245" width="40" height="4" fill="#6B7280"/>
  <rect x="120" y="245" width="30" height="4" fill="#6B7280"/>
  <rect x="70" y="255" width="100" height="3" fill="#D1D5DB"/>
</svg>