<svg width="200" height="280" viewBox="0 0 200 280" fill="none" xmlns="http://www.w3.org/2000/svg">
  <!-- Background -->
  <rect width="200" height="280" fill="white"/>
  
  <!-- Header -->
  <rect x="0" y="0" width="200" height="50" fill="#F59E0B"/>
  <rect x="20" y="15" width="100" height="12" fill="white"/>
  <rect x="20" y="32" width="60" height="6" fill="white"/>
  
  <!-- Two Column Layout -->
  <rect x="0" y="50" width="70" height="230" fill="#FBBF24"/>
  
  <!-- Left Column Content -->
  <rect x="15" y="70" width="40" height="8" fill="white"/>
  <rect x="15" y="85" width="40" height="4" fill="#FFFBEB"/>
  <rect x="15" y="95" width="40" height="4" fill="#FFFBEB"/>
  <rect x="15" y="105" width="40" height="4" fill="#FFFBEB"/>
  
  <rect x="15" y="125" width="40" height="8" fill="white"/>
  <rect x="15" y="140" width="40" height="4" fill="#FFFBEB"/>
  <rect x="15" y="150" width="40" height="4" fill="#FFFBEB"/>
  <rect x="15" y="160" width="40" height="4" fill="#FFFBEB"/>
  
  <rect x="15" y="180" width="40" height="8" fill="white"/>
  <rect x="15" y="195" width="40" height="4" fill="#FFFBEB"/>
  <rect x="15" y="205" width="40" height="4" fill="#FFFBEB"/>
  <rect x="15" y="215" width="40" height="4" fill="#FFFBEB"/>
  
  <!-- Right Column Content -->
  <rect x="85" y="70" width="100" height="8" fill="#F59E0B"/>
  <rect x="85" y="85" width="100" height="3" fill="#D1D5DB"/>
  <rect x="85" y="92" width="100" height="3" fill="#D1D5DB"/>
  <rect x="85" y="99" width="80" height="3" fill="#D1D5DB"/>
  
  <rect x="85" y="120" width="60" height="8" fill="#F59E0B"/>
  <rect x="85" y="135" width="50" height="6" fill="#111827"/>
  <rect x="85" y="145" width="40" height="4" fill="#6B7280"/>
  <rect x="135" y="145" width="30" height="4" fill="#6B7280"/>
  <rect x="85" y="155" width="100" height="3" fill="#D1D5DB"/>
  <rect x="85" y="162" width="100" height="3" fill="#D1D5DB"/>
  <rect x="85" y="169" width="80" height="3" fill="#D1D5DB"/>
  
  <rect x="85" y="190" width="60" height="8" fill="#F59E0B"/>
  <rect x="85" y="205" width="50" height="6" fill="#111827"/>
  <rect x="85" y="215" width="40" height="4" fill="#6B7280"/>
  <rect x="135" y="215" width="30" height="4" fill="#6B7280"/>
  <rect x="85" y="225" width="100" height="3" fill="#D1D5DB"/>
  <rect x="85" y="232" width="100" height="3" fill="#D1D5DB"/>
  <rect x="85" y="239" width="80" height="3" fill="#D1D5DB"/>
</svg>